<svg xmlns="http://www.w3.org/2000/svg" viewBox="0 0 500 500"><g id="freepik--background-complete--inject-5"><polygon points="126.08 209.42 176.59 207.1 167.41 256.43 126.08 209.42" style="fill:#ebebeb"></polygon><rect x="94.13" y="209.42" width="28.51" height="115.29" transform="translate(237.39 9.33) rotate(48.68)" style="fill:#ebebeb"></rect><polygon points="332.1 133.19 382.61 130.87 373.43 180.2 332.1 133.19" style="fill:#ebebeb"></polygon><rect x="300.15" y="133.19" width="28.51" height="115.29" transform="translate(250.13 -171.3) rotate(48.68)" style="fill:#ebebeb"></rect><polygon points="138.72 144.65 171.12 143.16 165.24 174.81 138.72 144.65" style="fill:#f5f5f5"></polygon><rect x="118.22" y="144.65" width="18.29" height="73.97" transform="translate(179.68 -33.95) rotate(48.68)" style="fill:#f5f5f5"></rect><polygon points="415.49 146.38 447.9 144.89 442.01 176.54 415.49 146.38" style="fill:#f5f5f5"></polygon><rect x="394.99" y="146.38" width="18.29" height="73.97" transform="translate(275 -241.22) rotate(48.68)" style="fill:#f5f5f5"></rect><rect x="292.81" y="406.92" width="51.34" height="16.97" rx="2.43" style="fill:#ebebeb"></rect><path d="M354.07,407a3.18,3.18,0,0,0,1.25-.41,2.43,2.43,0,0,0,1-1.23,7.46,7.46,0,0,0,.12-2.18c0-1.69,0-3.74,0-6.11,0-1.19,0-2.46,0-3.81a3.4,3.4,0,0,0-.31-1.93,2.26,2.26,0,0,0-1.64-1.09l-46.79.05a2.18,2.18,0,0,0-2.14,1.8c-.07,1,0,2.23,0,3.32q0,3.34,0,6.58v1.61a7.42,7.42,0,0,0,.07,1.52,2.19,2.19,0,0,0,2.07,1.62l6.08,0,21,.05,14.2.08,3.85.05,1,0,.34,0-.34,0-1,0-3.85.05-14.2.08-21,.06h-6.09a2.68,2.68,0,0,1-2.54-2,7.24,7.24,0,0,1-.1-1.65v-8.19c0-1.13,0-2.19,0-3.4a2.69,2.69,0,0,1,2.65-2.24c18.29,0,34.81,0,46.85.1a2.62,2.62,0,0,1,1.88,1.28,2.58,2.58,0,0,1,.34,1.07c0,.38,0,.7,0,1,0,1.35,0,2.62,0,3.81,0,2.37,0,4.42,0,6.11a7.47,7.47,0,0,1-.17,2.23,2.44,2.44,0,0,1-1.06,1.26,2.27,2.27,0,0,1-1,.32A1.26,1.26,0,0,1,354.07,407Z" style="fill:#e0e0e0"></path><rect x="44.91" y="102.7" width="51.34" height="16.97" rx="2.43" style="fill:#f5f5f5"></rect><path d="M119.49,102.7a2.94,2.94,0,0,0,1.25-.41,2.39,2.39,0,0,0,1-1.23,7.41,7.41,0,0,0,.12-2.18q0-2.53,0-6.11c0-1.19,0-2.46,0-3.81a3.4,3.4,0,0,0-.31-1.93,2.29,2.29,0,0,0-1.63-1.09L73,86a2.2,2.2,0,0,0-2.14,1.81c-.07,1,0,2.22,0,3.32,0,2.22,0,4.42,0,6.57V99.3a7.42,7.42,0,0,0,.07,1.52A2.2,2.2,0,0,0,73,102.45h6.08l21,.05,14.19.09,3.85.05,1,0a1.55,1.55,0,0,1,.34,0,1.3,1.3,0,0,1-.34,0l-1,0-3.85,0-14.19.08-21,.06H73a2.68,2.68,0,0,1-2.54-2,7.24,7.24,0,0,1-.1-1.65V91.12c0-1.14,0-2.2,0-3.41A2.7,2.7,0,0,1,73,85.47c18.3,0,34.81,0,46.85.11a2.61,2.61,0,0,1,1.88,1.27,2.58,2.58,0,0,1,.34,1.07c0,.38,0,.7,0,1,0,1.35,0,2.62,0,3.81q0,3.57,0,6.11a7.53,7.53,0,0,1-.17,2.24,2.52,2.52,0,0,1-1.06,1.26,2.22,2.22,0,0,1-1,.32A1.48,1.48,0,0,1,119.49,102.7Z" style="fill:#e0e0e0"></path><rect x="406.47" y="437.2" width="51.34" height="16.97" rx="2.43" style="fill:#ebebeb"></rect><path d="M446,327.14a2.8,2.8,0,0,0,1.25-.41,2.4,2.4,0,0,0,1-1.22,7.54,7.54,0,0,0,.11-2.19c0-1.68,0-3.73,0-6.1,0-1.19,0-2.47,0-3.81a3.34,3.34,0,0,0-.32-1.94,2.21,2.21,0,0,0-1.63-1.08l-46.79.05a2.17,2.17,0,0,0-2.14,1.8c-.07,1,0,2.23,0,3.32v8.18a7.49,7.49,0,0,0,.07,1.53,2.19,2.19,0,0,0,2.06,1.62h6.08l21.05.06,14.19.08,3.86,0,1,0a1.35,1.35,0,0,1,.35,0l-.35,0-1,0-3.86.05-14.19.09-21.05.05h-6.09a2.69,2.69,0,0,1-2.54-2,7.3,7.3,0,0,1-.09-1.66v-1.6q0-3.24,0-6.58c0-1.13,0-2.19,0-3.41a2.7,2.7,0,0,1,2.66-2.23c18.29,0,34.81,0,46.84.1a2.6,2.6,0,0,1,1.89,1.28,2.53,2.53,0,0,1,.33,1.06c0,.38,0,.7,0,1.05,0,1.34,0,2.62,0,3.81,0,2.37,0,4.42,0,6.1a7.51,7.51,0,0,1-.18,2.24,2.38,2.38,0,0,1-1.05,1.26,2.27,2.27,0,0,1-1,.32A1.44,1.44,0,0,1,446,327.14Z" style="fill:#e0e0e0"></path><path d="M131.62,370.58a2.73,2.73,0,0,0,1.25-.41,2.33,2.33,0,0,0,1-1.22,7.91,7.91,0,0,0,.11-2.19c0-1.68,0-3.73,0-6.1,0-1.19,0-2.46,0-3.81a3.42,3.42,0,0,0-.32-1.94,2.21,2.21,0,0,0-1.63-1.08l-46.79.05a2.16,2.16,0,0,0-2.14,1.8c-.07,1,0,2.23,0,3.32v8.19a6.24,6.24,0,0,0,.07,1.52,2.17,2.17,0,0,0,2.06,1.62h6.08l21,.06,14.19.08,3.86,0,1,0a1.23,1.23,0,0,1,.34,0,1.44,1.44,0,0,1-.34,0l-1,0-3.86,0-14.19.09-21,.05H85.09a2.68,2.68,0,0,1-2.54-2,7.24,7.24,0,0,1-.09-1.65v-1.61c0-2.16,0-4.35,0-6.58,0-1.13,0-2.19,0-3.41a2.71,2.71,0,0,1,2.66-2.23c18.29,0,34.81,0,46.84.1a2.58,2.58,0,0,1,1.88,1.28,2.4,2.4,0,0,1,.34,1.07c0,.37,0,.69,0,1,0,1.35,0,2.62,0,3.81,0,2.37,0,4.42,0,6.1A7.51,7.51,0,0,1,134,369a2.42,2.42,0,0,1-1,1.26,2.31,2.31,0,0,1-1,.32A1.55,1.55,0,0,1,131.62,370.58Z" style="fill:#e0e0e0"></path><path d="M429.71,106.68a3,3,0,0,0,1.25-.41,2.39,2.39,0,0,0,1-1.23,7.77,7.77,0,0,0,.12-2.18c0-1.69,0-3.73-.05-6.11,0-1.19,0-2.46,0-3.81a3.32,3.32,0,0,0-.32-1.93A2.25,2.25,0,0,0,430,89.92l-46.79,0a2.18,2.18,0,0,0-2.14,1.81c-.07,1,0,2.22,0,3.31v8.19a7.42,7.42,0,0,0,.07,1.52,2.19,2.19,0,0,0,2.06,1.63h6.08l21.05,0,14.19.09,3.86,0,1,0a1.55,1.55,0,0,1,.34,0,1.3,1.3,0,0,1-.34,0l-1,0-3.86,0-14.19.08-21.05.06h-6.09a2.69,2.69,0,0,1-2.54-2,7.82,7.82,0,0,1-.09-1.65V95.09c0-1.13-.05-2.19,0-3.4a2.7,2.7,0,0,1,2.65-2.24c18.29,0,34.81,0,46.84.11A2.61,2.61,0,0,1,432,90.83a2.58,2.58,0,0,1,.34,1.07c0,.38,0,.7,0,1,0,1.35,0,2.62,0,3.81,0,2.38,0,4.42,0,6.11a7.54,7.54,0,0,1-.18,2.24,2.46,2.46,0,0,1-1.05,1.26,2.27,2.27,0,0,1-1,.32A1.44,1.44,0,0,1,429.71,106.68Z" style="fill:#e0e0e0"></path><rect x="198.48" y="451.97" width="51.34" height="16.97" rx="2.43" style="fill:#ebebeb"></rect><rect x="397.03" y="27.16" width="51.34" height="16.97" rx="2.43" style="fill:#f5f5f5"></rect></g><g id="freepik--Stairs--inject-5"><path d="M45,484.19l.26,0,.8,0,3.12,0L61.27,484l45.1-.15-.32.33c0-12.57,0-26.84-.08-42.51v-.4h.4l70.46-.08-.49.48c0-12.56,0-25.77,0-39.36v-.51h79.35l-.52.52c0-15.43,0-30.52,0-45.15v-.51h.51l79.4.06-.45.45c.05-28.28.08-53.22.12-73.81V283h.33l49.88.16,13.31.08,3.43.05.87,0a1.16,1.16,0,0,1,.3,0l-.3,0-.87,0-3.43,0-13.31.09-49.88.16.34-.34c0,20.59.07,45.53.12,73.81v.45h-.46l-79.4.06.51-.51c0,14.63,0,29.72,0,45.15v.52H242.46l-65.63,0,.5-.5c0,13.59,0,26.8,0,39.36v.48h-.48l-70.46-.07.41-.41c0,15.67-.06,29.94-.08,42.51v.33h-.33l-45.1-.15-12.09-.09-3.12,0-.8,0A.76.76,0,0,1,45,484.19Z" style="fill:#263238"></path></g><g id="freepik--Plant--inject-5"><path d="M64.67,434.26a9.59,9.59,0,0,1,5,5.63,16.78,16.78,0,0,1,.66,7.62c-.56,4.95-3.37,9.94-6.39,13.89-4.17-3.63-5.12-10-5.41-13.22-.45-5.13,1.86-14.68,6.18-13.92" style="fill:#FF6584"></path><path d="M68.74,469.56a8.18,8.18,0,0,1,2.64-7.77,10.86,10.86,0,0,1,8-2.5,4.56,4.56,0,0,1,3.51,1.58,3.5,3.5,0,0,1,.06,3.54A7.23,7.23,0,0,1,80.34,467c-3.61,2.26-7.52,3.79-11.6,2.56" style="fill:#FF6584"></path><path d="M63.4,484.73a5,5,0,0,1,.15-1c.13-.71.3-1.63.5-2.74a28.74,28.74,0,0,1,2.83-8.78,17.6,17.6,0,0,1,6.3-6.69,11.84,11.84,0,0,1,2.57-1.13,5.77,5.77,0,0,1,.74-.19.74.74,0,0,1,.26,0,19.09,19.09,0,0,0-3.44,1.58,18.16,18.16,0,0,0-6.11,6.65A30.63,30.63,0,0,0,64.3,481c-.25,1.15-.46,2.08-.62,2.72A5.58,5.58,0,0,1,63.4,484.73Z" style="fill:#263238"></path><path d="M63.55,441.69a1.72,1.72,0,0,1,.06.44c0,.33,0,.76.07,1.28.06,1.11.13,2.71.19,4.69.13,4,.23,9.44.2,15.49s-.17,11.53-.33,15.49c-.09,2-.16,3.58-.23,4.69,0,.52-.07.94-.09,1.27a2.39,2.39,0,0,1-.05.45,1.59,1.59,0,0,1,0-.45c0-.33,0-.75,0-1.28,0-1.15.06-2.74.11-4.69.1-4,.21-9.43.23-15.48s0-11.52-.1-15.48c0-1.95,0-3.54-.07-4.7,0-.52,0-.94,0-1.27A3.82,3.82,0,0,1,63.55,441.69Z" style="fill:#263238"></path><path d="M61.53,472.57a19.12,19.12,0,0,0-10.44-14c-1.39-.66-3.21-1.1-4.35-.06s-.89,2.89-.33,4.33a16.32,16.32,0,0,0,15,10.15" style="fill:#FF6584"></path><path d="M51.76,463.25a5.42,5.42,0,0,1,.89.39,10.21,10.21,0,0,1,1,.53c.37.24.82.46,1.27.8a17.15,17.15,0,0,1,1.45,1.09,19.61,19.61,0,0,1,1.55,1.41,21,21,0,0,1,2.94,3.78,20.78,20.78,0,0,1,1.94,4.38,17.49,17.49,0,0,1,.49,2,16.61,16.61,0,0,1,.25,1.81c.07.55.05,1.06.07,1.5a7.76,7.76,0,0,1,0,1.13,5.4,5.4,0,0,1-.1,1c-.09,0,.06-1.38-.19-3.57a14.43,14.43,0,0,0-.29-1.77,19.46,19.46,0,0,0-.51-2,22.06,22.06,0,0,0-1.93-4.3,22.5,22.5,0,0,0-2.87-3.73c-.51-.51-1-1-1.5-1.41s-1-.78-1.41-1.11C53,463.9,51.73,463.32,51.76,463.25Z" style="fill:#263238"></path></g><g id="freepik--speech-bubble--inject-5"><path d="M293.58,80.88l8.74-4.18a31.19,31.19,0,1,1-1.51,11.07h0Z" style="fill:#fff"></path><path d="M293.58,80.88l.44.45,1.35,1.32c1.23,1.2,3,2.95,5.36,5.21a.11.11,0,0,0,.15,0l0,0v0l-.21,0a31.15,31.15,0,0,0,4.34,14.7,31.48,31.48,0,0,0,2.8,4,34.41,34.41,0,0,0,3.66,3.69,31,31,0,0,0,9.77,5.74,31.49,31.49,0,0,0,25.32-1.75,31,31,0,0,0,10.77-9.41,30.66,30.66,0,0,0,5.58-13.88l.25-1.92.06-1.92,0-1-.06-1-.11-1.9c-.07-.63-.19-1.25-.28-1.88a16.31,16.31,0,0,0-.35-1.85,29.07,29.07,0,0,0-1.06-3.59,31.32,31.32,0,0,0-31.8-20.68,31.36,31.36,0,0,0-11,2.89,33.56,33.56,0,0,0-4.53,2.58,42,42,0,0,0-3.76,3.07,31,31,0,0,0-8.13,13l0-.06-6.51,3.19-1.64.82-.54.27s.21-.08.59-.26l1.7-.79,6.49-3a.09.09,0,0,0,.06-.06,31,31,0,0,1,8.16-12.79,41.68,41.68,0,0,1,3.74-3,34.48,34.48,0,0,1,4.48-2.53,31.08,31.08,0,0,1,34.5,5.72A31.59,31.59,0,0,1,361,76a29.87,29.87,0,0,1,1,3.53,16.36,16.36,0,0,1,.34,1.83c.09.61.21,1.22.27,1.84l.11,1.88.06.94,0,.94-.06,1.89-.24,1.89A30.35,30.35,0,0,1,357,104.41a30.72,30.72,0,0,1-10.59,9.27,31.1,31.1,0,0,1-24.95,1.78,30.76,30.76,0,0,1-9.66-5.63,34.55,34.55,0,0,1-3.63-3.63,29.88,29.88,0,0,1-2.79-3.9,31.36,31.36,0,0,1-4.42-14.54.1.1,0,0,0-.11-.1.11.11,0,0,0-.1.08v0l.18-.05-5.4-5.07-1.41-1.31Z" style="fill:#263238"></path><circle cx="332.04" cy="87.9" r="18.41" style="fill:#FF6584"></circle><circle cx="332.04" cy="87.9" r="18.41" style="opacity:0.30000000000000004"></circle><circle cx="332.04" cy="85.87" r="18.41" transform="translate(-7.8 132.04) rotate(-22.24)" style="fill:#FF6584"></circle><circle cx="332.04" cy="85.87" r="12.33" transform="translate(36.54 259.94) rotate(-45)" style="fill:#fff"></circle><circle cx="332.04" cy="85.87" r="6.03" style="fill:#FF6584"></circle><polygon points="344.87 72.39 344.37 68.46 348.37 64.18 348.66 68.42 344.87 72.39" style="fill:#455a64"></polygon><polygon points="353.45 69.26 349.4 68.93 345.33 72.84 349.4 73.28 353.45 69.26" style="fill:#455a64"></polygon><path d="M332.85,85.78,346.93,75a17.47,17.47,0,0,0-1.77-2.15L332.85,84.82Z" style="opacity:0.30000000000000004"></path><path d="M348.82,67.83l-5.73,5.73L334,82.65l-2.09,2.09a.73.73,0,0,0,1,1L338.68,80l9.09-9.09,2.09-2.09c.66-.66-.37-1.68-1-1Z" style="fill:#263238"></path></g></svg>
